name D:\school\WTK\thesis\model\3dpredictsim\Results\debug\Pog_s1_tmt_bCst_d00_k2000_ig24_act_TTC_IAT30_v4.mot
datacolumns 128
datarows 4
range 0.58248964 0.61743902
endheader
time	pelvis_tilt	pelvis_list	pelvis_rotation	pelvis_tx	pelvis_ty	pelvis_tz	hip_flexion_l	hip_adduction_l	hip_rotation_l	hip_flexion_r	hip_adduction_r	hip_rotation_r	knee_angle_l	knee_angle_r	ankle_angle_l	ankle_angle_r	subtalar_angle_l	subtalar_angle_r	tmt_angle_l	tmt_angle_r	mtp_angle_l	mtp_angle_r	lumbar_extension	lumbar_bending	lumbar_rotation	arm_flex_l	arm_add_l	arm_rot_l	arm_flex_r	arm_add_r	arm_rot_r	elbow_flex_l	elbow_flex_r	pro_sup_l	pro_sup_r	glut_med1_l/activation	glut_med2_l/activation	glut_med3_l/activation	glut_min1_l/activation	glut_min2_l/activation	glut_min3_l/activation	semimem_l/activation	semiten_l/activation	bifemlh_l/activation	bifemsh_l/activation	sar_l/activation	add_long_l/activation	add_brev_l/activation	add_mag1_l/activation	add_mag2_l/activation	add_mag3_l/activation	tfl_l/activation	pect_l/activation	grac_l/activation	glut_max1_l/activation	glut_max2_l/activation	glut_max3_l/activation	iliacus_l/activation	psoas_l/activation	quad_fem_l/activation	gem_l/activation	peri_l/activation	rect_fem_l/activation	vas_med_l/activation	vas_int_l/activation	vas_lat_l/activation	med_gas_l/activation	lat_gas_l/activation	soleus_l/activation	tib_post_l/activation	flex_dig_l/activation	flex_hal_l/activation	tib_ant_l/activation	per_brev_l/activation	per_long_l/activation	per_tert_l/activation	ext_dig_l/activation	ext_hal_l/activation	ercspn_l/activation	intobl_l/activation	extobl_l/activation	glut_med1_r/activation	glut_med2_r/activation	glut_med3_r/activation	glut_min1_r/activation	glut_min2_r/activation	glut_min3_r/activation	semimem_r/activation	semiten_r/activation	bifemlh_r/activation	bifemsh_r/activation	sar_r/activation	add_long_r/activation	add_brev_r/activation	add_mag1_r/activation	add_mag2_r/activation	add_mag3_r/activation	tfl_r/activation	pect_r/activation	grac_r/activation	glut_max1_r/activation	glut_max2_r/activation	glut_max3_r/activation	iliacus_r/activation	psoas_r/activation	quad_fem_r/activation	gem_r/activation	peri_r/activation	rect_fem_r/activation	vas_med_r/activation	vas_int_r/activation	vas_lat_r/activation	med_gas_r/activation	lat_gas_r/activation	soleus_r/activation	tib_post_r/activation	flex_dig_r/activation	flex_hal_r/activation	tib_ant_r/activation	per_brev_r/activation	per_long_r/activation	per_tert_r/activation	ext_dig_r/activation	ext_hal_r/activation	ercspn_r/activation	intobl_r/activation	extobl_r/activation	
          0.58248964	         -2.92935827	          0.06546479	         -6.31241805	          0.72811205	          0.87196838	          0.00031065	         28.99497231	          0.75693752	         -0.55490933	        -16.11350075	         -1.22120967	          3.75366079	        -14.93079246	        -14.38393530	         18.27527444	        -18.79206302	          2.91867619	         15.95572566	          0.02182012	          0.47435581	         -0.13018701	         32.54410412	          0.24562568	          2.15502948	          2.45290520	        -11.17065834	        -13.45994569	          9.36774211	          5.08405226	        -13.47712839	         17.03487174	         17.15023367	         34.09104964	         86.51662706	         86.51662706	          0.09787032	          0.05970832	          0.05000077	          0.05528373	          0.05909205	          0.05000293	          0.14499867	          0.05970845	          0.15363845	          0.05000040	          0.05000167	          0.05000046	          0.05221834	          0.13028840	          0.15611654	          0.17217979	          0.05000112	          0.05000129	          0.05000279	          0.05970833	          0.15377752	          0.21100554	          0.05000020	          0.05000028	          0.14576010	          0.07227611	          0.11167178	          0.07075417	          0.21275651	          0.20550390	          0.18890367	          0.05000000	          0.05000001	          0.05000000	          0.05000004	          0.05000050	          0.05000028	          0.32285669	          0.15707995	          0.13076975	          0.25160595	          0.32191979	          0.22753194	          0.05000004	          0.11251536	          0.09928224	          0.08128606	          0.07130138	          0.07663820	          0.09547782	          0.09779461	          0.07952229	          0.05000330	          0.05000059	          0.05000063	          0.05969908	          0.08242187	          0.12100480	          0.06649997	          0.05001122	          0.05000259	          0.05000075	          0.16385427	          0.07813682	          0.06584293	          0.05000204	          0.05000126	          0.05000094	          0.38688851	          0.54571257	          0.12135043	          0.07130383	          0.08784424	          0.29485492	          0.12872676	          0.15588842	          0.14138892	          0.10274415	          0.18356946	          0.05970826	          0.12604584	          0.13978865	          0.16173004	          0.05000006	          0.38223902	          0.33425991	          0.05000823	          0.08186912	          0.05000053	          0.05000008	          0.07130134	          0.05176458	
          0.59413943	         -2.92425861	         -0.05698315	         -6.47337479	          0.74614583	          0.86986118	          0.00021168	         28.45832544	          0.82045291	         -0.28986093	        -16.58220783	         -1.32388068	          3.54142603	        -15.74775699	        -15.09262615	         17.51754453	        -21.10480314	          2.90667980	         15.99434254	         -0.02094692	          0.40048090	         -0.17705535	         33.36207514	          0.45681352	          2.05969292	          2.50407090	        -12.35784663	        -13.46160431	          9.46262825	          4.88842081	        -13.50236116	         17.29232454	         16.98457152	         35.02517130	         86.51662706	         86.51662706	          0.21498633	          0.05000033	          0.31034572	          0.05000093	          0.05000064	          0.11302427	          0.12142288	          0.05000041	          0.12865789	          0.05000028	          0.05823172	          0.07129149	          0.07130792	          0.10910486	          0.14061558	          0.18545470	          0.05000052	          0.05973615	          0.05000888	          0.05000030	          0.15885873	          0.21684126	          0.05469645	          0.05000133	          0.12206062	          0.06052499	          0.24180178	          0.05925011	          0.17816408	          0.17209100	          0.15819008	          0.07130140	          0.07183731	          0.07130142	          0.07065598	          0.07130312	          0.07184326	          0.27036229	          0.17332802	          0.14063665	          0.21069649	          0.26957776	          0.19053676	          0.05000003	          0.09422143	          0.08313960	          0.06806966	          0.05970840	          0.06417737	          0.07995395	          0.08189412	          0.06659264	          0.05000386	          0.05000429	          0.05000725	          0.05000038	          0.06902113	          0.12899619	          0.11487809	          0.05972331	          0.05970997	          0.05971172	          0.13721281	          0.07130036	          0.05970819	          0.05007309	          0.05014770	          0.05970796	          0.32398301	          0.45698332	          0.10161973	          0.05971053	          0.07356140	          0.24691343	          0.11518100	          0.13054586	          0.11840081	          0.08603863	          0.15372229	          0.05000014	          0.10555163	          0.11706002	          0.13543384	          0.06239288	          0.36024740	          0.31517228	          0.15435091	          0.20509995	          0.06672647	          0.05105667	          0.05970823	          0.06377171	
          0.60578923	         -2.91662729	         -0.17118862	         -6.60289071	          0.76426564	          0.86764621	          0.00012066	         27.79200427	          0.88118953	         -0.02991721	        -16.93426177	         -1.41557599	          3.31792341	        -16.66764799	        -16.01367519	         17.04520600	        -23.26370847	          2.87429606	         15.94017394	         -0.01139291	          0.32681962	         -0.18427044	         33.49810531	          0.67051982	          1.94442935	          2.54291494	        -13.50752361	        -13.46926588	          9.62812356	          4.65545713	        -13.52838320	         17.50370591	         16.80123888	         35.90233042	         86.51662706	         86.51662706	          0.28040552	          0.27858741	          0.36190200	          0.13251755	          0.19772590	          0.26931322	          0.10168032	          0.06560158	          0.10773897	          0.05890459	          0.05000081	          0.05970007	          0.05971380	          0.09136535	          0.11775345	          0.17381911	          0.05000089	          0.05002408	          0.05967236	          0.22681825	          0.19524789	          0.19383425	          0.05000019	          0.05000021	          0.10221471	          0.05068923	          0.20249459	          0.05000012	          0.14919632	          0.17306742	          0.17593483	          0.05970827	          0.06015705	          0.05970828	          0.05916782	          0.05971001	          0.06016216	          0.40049712	          0.21746586	          0.14010824	          0.39946130	          0.37060218	          0.31889815	          0.05032362	          0.08367977	          0.06962165	          0.15623490	          0.05000044	          0.05374259	          0.14499391	          0.06857985	          0.05576542	          0.05000433	          0.05000037	          0.05000032	          0.05000209	          0.05971948	          0.13430700	          0.09619989	          0.05001301	          0.05000254	          0.05000347	          0.11490324	          0.05970881	          0.05000105	          0.05000179	          0.05000123	          0.05000116	          0.27130571	          0.42895096	          0.08509708	          0.05000232	          0.06160107	          0.20676692	          0.09645375	          0.10932126	          0.12910876	          0.07204933	          0.12872809	          0.05000009	          0.08838964	          0.09802694	          0.11341325	          0.08202218	          0.32487312	          0.28832014	          0.33132045	          0.29392153	          0.09262447	          0.06868671	          0.05000008	          0.05340286	
          0.61743902	         -2.90796483	         -0.27615377	         -6.69536083	          0.78220662	          0.86547391	          0.00000692	         27.16812575	          0.95670105	          0.20334114	        -17.14493498	         -1.49926006	          3.09420198	        -17.63271416	        -17.15096132	         16.46408785	        -25.17056079	          2.83882670	         15.79093806	         -0.01216501	          0.26412522	         -0.20019390	         32.66330735	          0.86304247	          1.81029892	          2.57104917	        -14.55792404	        -13.47773078	          9.87439746	          4.43220321	        -13.55051430	         17.69036108	         16.56887914	         36.67776159	         86.51662706	         86.51662706	          0.34107419	          0.35387612	          0.42477329	          0.12918856	          0.26175417	          0.27443329	          0.08514778	          0.05651968	          0.09022134	          0.05000049	          0.05000058	          0.05000019	          0.05000485	          0.07651026	          0.11904509	          0.17436543	          0.05000072	          0.05000118	          0.05000152	          0.26253632	          0.22072564	          0.19839781	          0.05000011	          0.05000012	          0.08559558	          0.05012867	          0.17432017	          0.05000013	          0.23897420	          0.25529168	          0.24537603	          0.05000012	          0.05037593	          0.05000011	          0.05000009	          0.05000272	          0.05038045	          0.43283319	          0.18989170	          0.11732799	          0.43653850	          0.39349533	          0.32038499	          0.05849289	          0.07007406	          0.05830164	          0.13083232	          0.05000802	          0.05970789	          0.12141911	          0.05743027	          0.05000900	          0.05000614	          0.05000093	          0.05000136	          0.05000057	          0.05001099	          0.15469208	          0.08058833	          0.05773739	          0.05006515	          0.05001204	          0.09622098	          0.05002362	          0.05000876	          0.05001446	          0.05001187	          0.05004260	          0.22719325	          0.40485583	          0.07126128	          0.05968557	          0.05284465	          0.17314797	          0.12141769	          0.10626537	          0.10811745	          0.06033462	          0.10779781	          0.05000020	          0.07401809	          0.08208857	          0.09497309	          0.09415412	          0.28256633	          0.26305040	          0.36201247	          0.35057883	          0.09448634	          0.08361485	          0.05000004	          0.05000006	
